# xmcd
#
# Track frame offsets:
#	150
#	12269
#	28920
#	42775
#	61490
#	75576
#	94082
#	105372
#	120002
#	131824
#	144268
#	156118
#	171865
#	186813
#
# Disc length: 2676 seconds
#
# Revision: 1
# Processed by: cddbd v1.5.2PL0 Copyright (c) Steve Scherf et al.
# Submitted via: FairStars CD Ripper 1.60
#
DISCID=a90a720e
DTITLE=Ken and Roger Mullan - My Mothers Eyes
DYEAR=2003
DGENRE=Country
TTITLE0=Full Time Fool
TTITLE1=If Tomorrow Never Comes
TTITLE2=Dixie Road
TTITLE3=My Mother's Eyes
TTITLE4=Across The Bridge
TTITLE5=The Farmer's Daughter
TTITLE6=Groen Koringlande
TTITLE7=One More Time
TTITLE8=Just A Closer Walk With Thee
TTITLE9=Love Song Of The Waterfall
TTITLE10=Rainbows And Roses
TTITLE11=Dark Deep Rolling Waters
TTITLE12=The Cowboy Rides Away
TTITLE13=To All The Girls I've Loved Before
EXTD=
EXTT0=
EXTT1=
EXTT2=
EXTT3=
EXTT4=
EXTT5=
EXTT6=
EXTT7=
EXTT8=
EXTT9=
EXTT10=
EXTT11=
EXTT12=
EXTT13=
PLAYORDER=
